<?xml version="1.0" encoding="UTF-8"?>
<svg id="Layer_2" data-name="Layer 2" xmlns="http://www.w3.org/2000/svg" viewBox="0 0 752.81 225.17">
  <defs>
    <style>
      .cls-1 {
        fill: #fff;
        stroke-width: 0px;
      }
    </style>
  </defs>
  <g id="Header">
    <g>
      <path class="cls-1" d="m86.21,144.79c-.79-3.04-1.67-6.06-2.37-9.12-2.45-10.83-4.83-21.68-7.28-32.51-.12-.54-.72-.96-1.1-1.44l-.53.35c-4.2,25.02-8.4,50.05-12.62,75.16-.76.06-1.45.11-2.75.21.4,2.88.9,5.69,1.13,8.52.11,1.37-.26,2.8-.49,4.19-1.36,8.26-2.73,16.52-4.13,24.77-.4,2.35-.92,4.67-1.41,7.1h-3.99c-.06-1.03-.12-2.07-.19-3.37-1.01-.05-2.03-.09-3.23-.15-.07,1.19-.13,2.23-.2,3.45h-8.32c-.06-1-.12-2.03-.18-3.25h-4.26c-.09,1.08-.17,2.12-.27,3.28h-7.25c-.05-1.03-.1-2.12-.16-3.34h-5.39c-.05,1.05-.1,2.09-.16,3.3h-6.22c-.05-.99-.11-2.02-.18-3.24h-6.23c-.06,1.01-.12,2.04-.19,3.11-2.6.4-5.2.79-8.26,1.26,3.1-19.56,6.14-38.76,9.2-58.03h5.39v-8.08c-.98-.06-2.01-.13-3.35-.21.36-2.49.69-4.9,1.07-7.29.17-1.11.35-2.24.7-3.3.27-.83.81-1.58,1.23-2.36.18.06.35.13.53.19,0-2.34-.18-4.7.03-7.02.51-5.59,1.05-11.19,1.85-16.74.93-6.45,2.08-12.87,3.25-19.29.82-4.5,1.85-8.97,2.76-13.46.31-1.51.51-3.05.79-4.74.95-.08,1.92-.17,3.23-.28,0-2.49.06-5.01-.07-7.53-.02-.39-.94-.74-1.81-1.38,2.94-18.8,5.92-37.9,8.91-57.01q.42,4.65,4.92,4.03v-5.1h8.49v5.19h3.3v-5.17h9.5c0,1.08.08,2.2-.02,3.3-.16,1.78.56,2.36,2.46,1.78v-5.09h10.5c0,1.4-.05,2.74.03,4.07.02.4.42.78.64,1.16.28-.4.78-.79.81-1.21.11-1.32.04-2.66.04-4.08h11.38c.13,1.79.27,3.59.4,5.39.29-.02.57-.05.86-.07v-5.26h10.78v5.02c1.77.63,2.6.26,2.47-1.59-.07-1.11-.01-2.24-.01-3.32q3.6-.62,4.38,2.53c1.67,6.86,3.4,13.72,4.99,20.6,1.12,4.86,2.06,9.76,3.12,14.82-.88.08-1.81.16-2.85.25v7.84h3.24v-7.05c.14-.02.28-.03.42-.05,3.18,13.32,6.37,26.65,9.49,39.69-2.56,2.83-.65,5.91-1.48,8.82,1.26.07,2.23.12,3.65.2,1.23,4.76,2.5,9.65,3.75,14.55,1.12,4.41,2.2,8.84,3.35,13.24.17.67.71,1.23.98,1.88.73,1.78,1.88.93,2.35.1,1.22-2.18,2.06-4.56,3.19-6.79,1.4-2.75,2.94-5.43,4.45-8.13.5-.9,1.08-1.76,1.93-3.14v8.55h6.66v-7.91h-6.04c.87-1.54,1.61-2.76,2.26-4.02,2.59-5.04,5.15-10.09,7.73-15.13.27-.54.63-1.03,1.32-2.12v8.7h7.53v-7.96h-7.04c1.86-3.25,3.62-6.13,5.18-9.12,1.87-3.58,3.56-7.26,5.34-10.89.17-.34.41-.65.94-1.46,0,2.89-.08,5.21.06,7.52.03.51.77,1.37,1.24,1.41,2.03.16,4.08.07,6.25.07v-8.27h-6.93c.54-1.05.88-1.77,1.26-2.46,1.92-3.46,3.91-6.87,5.76-10.37,1.78-3.38,3.15-7.01,5.21-10.2,1.48-2.29,6.06-7.74,6.5-9.96.88-4.45,3.44-8.08,5.96-11.48,1.71-2.3,3.3-4.67,4.8-7.09.71-1.15,1.11-2.53,1.42-3.87.53-2.33,1.9-3.56,4.28-3.56.91,0,1.82,0,2.97,0,0,1.35.09,2.54-.02,3.71-.21,2.17,1.3,1.69,2.51,1.77,1.35.08,2.43-.01,2.22-1.85-.13-1.11-.02-2.25-.02-3.5h8.28v5.09c3.61.55,3.64.52,3.65-2.58,0-.78,0-1.55,0-2.48h9.34v5.05c1.86.59,2.73.19,2.58-1.75-.08-1.05-.01-2.11-.01-3.31h10.01c.94,1.64-.66,3.85,1.54,5.23v-5.26h11.94v5.26c.22.03.45.05.67.08,1.32-1.47.18-3.47.8-5.28h10.31c-.28,3.4-.37,6.84-.89,10.21-1.25,8.13-2.69,16.24-4.07,24.35-1.51,8.86-3.06,17.71-4.58,26.56-.25,1.43-.43,2.88-.71,4.76-.23-2.66-.42-4.85-.63-7.04,0-.05-.39-.06-.93-.14,0,2.52-.86,5.48.21,7.29,1.44,2.43.53,4.29.27,6.41-.28,2.31-.6,4.62-.97,6.91-.94,5.7-1.93,11.38-2.88,17.08-1.48,8.81-2.95,17.62-4.41,26.43-.96,5.77-1.88,11.54-2.85,17.3-.28,1.65-.64,3.28-1.22,4.9,0-.95.06-1.9-.03-2.84-.03-.28-.47-.52-.72-.77-.19.24-.55.5-.54.73.2,2.53.51,5.05.66,7.59.07,1.1-.11,2.23-.3,3.33-.93,5.32-1.97,10.63-2.84,15.96-1.24,7.56-2.32,15.15-3.56,22.71-.76,4.65-1.65,9.29-2.57,13.91-.09.46-.76.8-1.55,1.59-.13-1.82-.2-2.86-.29-4.06-.78-.04-1.45-.07-2.29-.11-.06,1.19-.11,2.23-.16,3.43h-9.2c-.07-1.03-.14-2.06-.23-3.31-1.06-.05-2.08-.1-3.33-.15-.11,1.24-.22,2.33-.32,3.52h-8.04c-.07-1.07-.13-2.1-.21-3.31h-4.48c-.07,1.1-.14,2.13-.22,3.29h-7v-3.26h-5.61c-.05.99-.11,2.08-.17,3.28h-6.19c-.06-1.04-.11-2.07-.19-3.38-1.31-.07-2.61-.13-4.33-.22.66-4.11,1.3-8.1,1.95-12.14.76-.12,1.46-.23,2.43-.38-.4-2.81.75-5.62-.67-8.53-.57-1.18.19-3.03.4-4.56.8-5.86,1.56-11.72,2.45-17.57.98-6.44,2-12.88,3.17-19.29.69-3.8,1.7-7.55,2.6-11.46,1.24-.09,2.55-.19,3.88-.29v-8.07c-.8-.09-1.49-.17-2.73-.31,2.65-10.54,2.86-21.37,4.95-32.68-.94.64-1.69.9-2.01,1.42-1.19,1.92-2.2,3.96-3.33,5.91-2.32,4.01-4.76,7.95-7,12.01-2.11,3.81-3.96,7.75-6.06,11.57-1.45,2.64-3.23,5.1-4.68,7.74-2.33,4.25-4.56,8.55-6.74,12.88-.77,1.53-1.6,2.69-3.5,2.18-.77,7.58-5.42,13.35-8.78,19.67-.38.72-2.01.78-3.32,1.24.07-.16-.1.04-.08.21.43,3.91-1.31,7.2-3.07,10.46-1.37,2.55-2.91,5.02-4.18,7.62-.66,1.35-1.45,1.97-2.93,1.75-1.22-.19-1.95.25-1.77,1.62.52,3.94-1.16,7.24-3.03,10.5-1.34,2.33-2.66,4.67-3.88,7.06-.59,1.16-1.33,1.72-2.66,1.56-1.39-.17-2.65-.06-2.41,1.98h-7.05c-.12-.56-.25-1.14-.4-1.86h-3.88c-.12.54-.25,1.13-.4,1.86h-8.15c-.11-.59-.21-1.18-.34-1.87h-3.09c-.11.6-.21,1.2-.33,1.88h-6.81c-2.35-7.36-3.42-14.84-2.39-22.58-1.2-.1-1.96-.16-2.95-.24-3.77-17.62-7.55-35.28-11.33-52.96.35-.38.99-.75,1.01-1.14.09-2.51.05-5.03.05-7.68-1.38.65-1.77,5.34-1.01,8.85Zm90.45-8.7c-9.57-.03-7.23-1.62-7.56,6.57,0,.21-.08.49.02.62.3.38.67.99,1.03,1,2.16.09,4.33.05,6.51.05v-8.24Zm-11.93,0c-9.52-.03-7.23-1.59-7.55,6.57,0,.21-.08.49.02.62.3.38.67.99,1.03,1.01,2.16.09,4.32.05,6.5.05v-8.24Zm-7.44,28.75h7.39v-7.86h-7.39v7.86Zm7.51-49.16h-7.47v7.77h7.47v-7.77Zm11.9,0h-7.48v7.8h7.48v-7.8Zm-.04-12.64v-7.88h-7.39v7.88h7.39Zm-24.64,41.3c0-2.61.41-5.02-.11-7.21-.57-2.45-2.95-.72-4.48-1.09-.82-.2-2.14-.47-2.15,1.16-.02,1.98-.07,3.96.04,5.93.02.42.66,1.13,1.06,1.16,1.81.13,3.62.06,5.64.06Zm-.08,33.14h-6.49v7.82h6.49v-7.82Zm-6.66-20.52c0,2.37-.06,4.5.04,6.62.02.47.55,1.29.9,1.31,1.87.13,3.76.06,5.71.06v-7.99h-6.64Zm43.28-74.53v-8.09h-6.09v8.09h6.09Zm-6.1,33.16v7.85h6.14v-7.85h-6.14Zm.02-20.48v7.91h6.11v-7.91h-6.11Zm-.07-33.43h6.18v-7.85h-6.18v7.85ZM14.58,185.39v-7.93h-6.07v7.93h6.07Zm-6.15,20.57h6.18v-7.99h-6.18v7.99Zm186.75-123.69h5.35v-7.96h-5.35v7.96ZM21.15,144.2h5.38v-8.21c-1.5,0-2.85-.09-4.18.05-.43.05-1.13.67-1.15,1.05-.11,2.32-.05,4.64-.05,7.12Zm112.28-8.13c0,2.46-.04,4.84.05,7.22.01.36.63.96,1.01,1,1.38.12,2.78.05,4.21.05v-8.26h-5.26Zm67.04-94.8v-7.93h-5.22v7.93h5.22Zm-5.24,115.68v7.84h5.31v-7.84h-5.31ZM21.3,115.58v7.92h5.27v-7.92h-5.27Zm0,41.38v7.84h5.29v-7.84h-5.29Zm179.19-53.91v-7.85h-5.29v7.85h5.29Zm-173.89-7.88h-5.28v7.86h5.28v-7.86Zm-.05,90.23v-7.91h-5.24v7.91h5.24Zm112.17-7.95h-5.16v7.84h5.16v-7.84Zm61.76,7.91v-7.93h-5.28v7.93h5.28Zm.02-123.6v-7.93h-5.26v7.93h5.26ZM21.28,197.89v8h5.29v-8h-5.29Zm179.23,8.06v-8.01h-5.31v8.01h5.31Zm-61.84-41.1v-7.84h-5.12v7.84h5.12Zm.05,33.06h-5.17v8.01h5.17v-8.01Zm73.85-115.62c0-2.1-.11-4.08.03-6.03.13-1.72-.51-2.11-2.15-2.16-1.98-.06-2.9.45-2.59,2.55.12.83.02,1.69.02,2.54q0,3.61,3.6,3.36c.27-.02.54-.12,1.09-.25Zm0,61.88c0-2.48.11-4.8-.03-7.11-.12-1.88-1.71-.93-2.65-1.05-.8-.1-1.98-.43-1.99,1.1,0,2.31,0,4.61,0,7.06h4.67Zm-.13-82.43v-7.91h-4.38v7.91h4.38Zm-4.43,115.63v7.91h4.4v-7.91h-4.4Zm.04-61.78v7.91h4.4v-7.91h-4.4Zm-.03-20.47v7.85h4.43v-7.85h-4.43Zm4.48,61.89h-4.49v7.78h4.49v-7.78Zm-4.47-123.69v7.83h4.43v-7.83h-4.43Zm-.01,164.57v8h4.38v-8h-4.38Zm-169.49-61.71q-4.39-.52-4.39,3.62c0,.35,0,.71,0,1.06,0,3.89.27,4.1,4.38,3.2v-7.88Zm.01-61.83q-4.4-.46-4.4,3.49c0,.35,0,.71,0,1.06q0,3.97,3.97,3.59c.12-.01.23-.14.42-.27v-7.87Zm83.31,69.87h4.05v-8.07h-4.05v8.07Zm4.01-20.68v-7.92h-3.97v7.92h3.97Zm-91.5,33.39v7.9h4.11v-7.9h-4.11Zm91.55,8v-7.92h-3.97v7.92h3.97ZM34.31,53.74v7.88h4.16v-7.88h-4.16Zm4.25-20.36h-4.19v7.8h4.19v-7.8Zm-4.23,144.03v7.91h4.19v-7.91h-4.19Zm87.57,0v7.86h4.04v-7.86h-4.04ZM38.55,95.14h-4.25v7.85h4.25v-7.85Zm-4.23,20.46v7.91h4.2v-7.91h-4.2Zm-.03,82.27v8.02h4.19v-8.02h-4.19Zm87.62.03v8.05h3.97v-8.05h-3.97Zm102.6-53.72c0-1.93,0-3.69,0-5.45,0-3.07-.48-3.39-3.45-2.33v7.78h3.45Zm-3.62-69.79c0,2.14.06,4.18-.02,6.21-.05,1.36.23,2.05,1.83,2.03,1.57-.02,1.93-.67,1.83-2.05-.09-1.12-.02-2.25-.02-3.38q0-3.27-3.62-2.81Zm.13-20.61v7.93h3.36v-7.93h-3.36Zm-.03,49.23h3.36v-7.85h-3.36v7.85Zm3.38-69.7h-3.36v7.93h3.36v-7.93Zm0,131.54v-7.89h-3.35v7.89h3.35Zm.01-49.24h-3.37v7.85h3.37v-7.85Zm.13,90.35c0-1.98,0-3.67,0-5.35,0-3.17-.18-3.3-3.48-2.46v7.81h3.48Zm-3.5-20.6h3.37v-7.93h-3.37v7.93ZM47.28,74.22v8.16h3.1v-8.16h-3.1Zm3.15,69.98v-8.06h-3.11v8.06h3.11Zm59.51-61.79q3.3.32,3.31-2.63c0-.92,0-1.83,0-2.75q0-3.11-3.31-2.66v8.04Zm-.01,53.68v8.07h3.17v-8.07h-3.17Zm-59.46,28.78v-7.9h-3.19v7.9h3.19Zm59.52-7.94v7.88h3.11v-7.88h-3.11ZM47.24,33.29v7.91h3.19v-7.91h-3.19Zm3.18,69.77v-7.93h-3.17v7.93h3.17Zm59.53-7.93v7.84h3.18v-7.84h-3.18Zm-59.55,110.82v-8.04h-3.11v8.04h3.11Zm62.65-.01v-8.01h-3.08v8.01h3.08Zm-62.65-20.57v-7.94h-3.13v7.94h3.13Zm59.49-.1h3.23v-7.82h-3.23v7.82Zm-59.48-61.74v-7.94h-3.16v7.94h3.16Zm.04-61.83v-7.9h-3.17v7.9h3.17Zm62.68,53.94h-3.17v7.87h3.17v-7.87Zm-15.18,29.23c1.04-.68,2.18-1.05,2.22-1.51.18-2.37.09-4.76.09-7.25h-2.3v8.76Zm136.02-.73c1.9.56,2.58-.04,2.45-1.79-.11-1.47-.1-2.96,0-4.44.14-2.05-.88-2.16-2.45-1.74v7.97ZM59.93,74.45c0,2.3-.07,4.56.06,6.81.02.45.76.86,1.17,1.3.45-.46,1.24-.88,1.29-1.37.16-1.69-.03-3.4.09-5.1.13-1.86-.66-2.26-2.6-1.64Zm38.02,7.82l.49.57c.61-.44,1.7-.84,1.74-1.33.18-2.37.08-4.77.08-7.19h-2.31v7.95Zm-37.89,53.82v8.06h2.32v-8.06h-2.32Zm174-61.75v8.06c1.91.53,2.49-.21,2.36-1.9-.1-1.41-.1-2.83,0-4.24.13-1.82-.54-2.49-2.36-1.92Zm-.06-20.58v7.92h2.25v-7.92h-2.25Zm-171.66-12.54v-7.93h-2.28v7.93h2.28Zm.06,123.64v-7.91h-2.33v7.91h2.33Zm173.83-41.32v-7.93h-2.21v7.93h2.21Zm-176.22-.04h2.38v-7.88h-2.38v7.88Zm2.33-61.8v-8.07c-.85.05-1.53.08-2.29.12v7.95h2.29Zm173.89,123.66v-7.93h-2.21v7.93h2.21Zm-2.19-152.07v8.06c.84-.08,1.51-.14,2.24-.21v-7.85h-2.24Zm-.02,61.71v8.17c.82-.07,1.5-.12,2.27-.19v-7.86c-.77-.04-1.45-.08-2.27-.12Zm-173.94.1v7.92h2.3v-7.92h-2.3Zm37.92-41.35v7.95h2.13v-7.95h-2.13Zm-.02,61.7v8.16c.79-.05,1.46-.09,2.17-.13v-7.88c-.73-.05-1.34-.09-2.17-.15Zm-.01,41.48v8.02c.77-.04,1.43-.07,2.12-.1v-7.91h-2.12Zm2.16-115.72v-8.02c-.81.04-1.48.07-2.12.11v8.03c.77-.04,1.39-.08,2.12-.12Zm133.9,115.75v8.04c.83-.07,1.5-.13,2.26-.2v-7.84h-2.26Zm-.03,48.88c1.92.65,2.57-.05,2.43-1.88-.11-1.41,0-2.83-.03-4.24-.03-2.08-.13-2.14-2.4-1.62v7.74Zm-133.91-20.49v-7.95h-2.12v7.95h2.12Zm-2.11-82.34h2.13v-7.91h-2.13v7.91Zm-23.99-28.85c-.34.02-.69.03-1.03.05,0,2.61-.01,5.22.04,7.82,0,.15.71.48.79.41.27-.25.56-.64.58-.99.06-1.76.07-3.52.01-5.28-.02-.67-.25-1.34-.39-2.01Zm.39,24.73h0c0-.98.05-1.97-.03-2.95-.03-.31-.4-.59-.62-.88-.29.3-.82.59-.83.9-.07,2.1-.05,4.21.01,6.32,0,.28.47.55.72.83.25-.28.68-.55.7-.85.08-1.12.03-2.24.03-3.37Zm.01-61.68c0-.98.06-1.97-.03-2.95-.04-.36-.45-.68-.68-1.02-.27.32-.75.64-.76.97-.07,1.97-.08,3.94,0,5.9.02.4.52.78.81,1.17.22-.37.61-.73.64-1.12.09-.98.03-1.97.03-2.95Zm0,20.5h0c0-1.06.05-2.12-.03-3.17-.02-.29-.45-.55-.7-.83-.25.27-.71.53-.72.81-.07,2.11-.08,4.23-.01,6.34,0,.31.54.6.83.9.22-.29.59-.58.62-.88.08-1.05.03-2.11.03-3.17Zm12.54,16.39c-1.17.95-1.4,6.3-.52,8.39.94-.77,1.23-5.06.52-8.39Zm160.92,0c-1.66,1.17-1.61,7.5,0,8.45v-8.45Zm.02,61.91c-1.34.67-1.41,1.04-1.17,6.7.02.56.36,1.11.56,1.66.2-.06.41-.12.61-.19v-8.17Zm-.62-32.77c.25-.07.51-.14.76-.21,0-2.3.03-4.61-.03-6.91,0-.36-.42-.71-.64-1.07-.22.35-.62.7-.63,1.06-.06,1.97-.06,3.94,0,5.9.01.41.35.81.54,1.21Zm.76,16.39c0-1.06.04-2.12-.03-3.17-.02-.32-.36-.62-.55-.93-.25.33-.7.65-.71.99-.07,2.04-.06,4.08,0,6.13,0,.31.36.61.56.92.25-.33.67-.64.71-.99.1-.98.03-1.97.03-2.95ZM87.22,37.26c0-1.13.03-2.25-.03-3.38-.01-.23-.39-.44-.6-.66-.21.22-.6.43-.6.66-.05,2.25-.05,4.5,0,6.75,0,.22.39.44.6.66.21-.22.59-.43.6-.66.06-1.12.03-2.25.03-3.38Zm160.04,4.15c.25-.07.5-.14.76-.22,0-2.3.03-4.61-.03-6.91,0-.36-.42-.7-.65-1.05-.22.36-.61.71-.62,1.08-.06,1.97-.06,3.94,0,5.91.01.41.35.8.54,1.2Zm12.62.1c.64-.3,1.17-.43,1.18-.58.08-2.38.1-4.77.08-7.16,0-.18-.49-.53-.68-.49-.23.05-.54.43-.55.68-.04,2.43-.02,4.86-.02,7.55ZM86.98,115.58c-1.14.43-1.52,4.29-.79,7.94,1.14-.43,1.52-4.29.79-7.94Zm-1.03-16.6c0,1.13-.03,2.25.02,3.38.01.26.34.49.51.74.25-.25.7-.5.71-.75.06-2.18.05-4.36,0-6.54,0-.25-.34-.49-.52-.74-.25.25-.68.48-.7.75-.08,1.05-.03,2.11-.03,3.16Zm0-41.36c0,1.13-.03,2.25.02,3.38.01.26.34.49.52.74.25-.25.7-.49.71-.75.06-2.18.05-4.36,0-6.54,0-.25-.34-.49-.52-.74-.25.25-.68.49-.7.75-.08,1.05-.03,2.11-.03,3.16Zm174.18-3.86c-.76,3.66-.36,7.51.81,7.93.76-3.64.37-7.5-.81-7.93Zm-12.12,4.04c0-1.06.04-2.11-.03-3.17-.02-.32-.36-.62-.55-.93-.25.33-.7.66-.71,1-.07,2.04-.06,4.08,0,6.12,0,.31.36.61.56.92.25-.33.67-.64.7-.99.1-.98.03-1.97.03-2.95Z"/>
      <path class="cls-1" d="m746.68,172.19c-2.05,6.35-4.84,12.03-8.42,17.3-11.15,16.45-26.86,26.39-45.71,31.72-11.88,3.36-24.07,4.4-36.34,3.79-13.54-.68-26.57-3.46-38.14-11.08-12.69-8.36-20.26-20.25-22.95-35-3.97-21.82-.04-42.66,9.05-62.68.35-.77.72-1.52,1.24-2.59-1.93-.33-3.69-.73-5.46-.92-7.97-.84-15.94-1.6-23.57,1.87-11.32,5.15-18.26,13.87-20.52,26.03-2.25,12.09-4.03,24.26-6.04,36.39-2.4,14.56-4.81,29.12-7.29,43.66-.1.57-.96,1.1-1.58,1.44-.38.21-.97.04-1.47.04-16.77,0-33.54,0-50.31,0-.78,0-1.55,0-2.72,0,8.63-51.8,17.24-103.43,25.84-155.04h54.22c-1.62,9.86-3.21,19.6-4.81,29.33.23.13.47.26.7.39.5-.64,1.15-1.21,1.48-1.94,3.46-7.54,7.68-14.55,14.03-20.03,6.89-5.95,14.82-9.42,24.05-9.71,5.13-.16,10.14.42,15.41,1.98-2.03,12.03-4.06,24.11-6.19,36.72,1.84-2.35,3.32-4.31,4.88-6.2,12.77-15.46,28.91-25.5,48.44-30.08,10.64-2.5,21.4-2.92,32.27-2.03,9.39.77,18.36,3.01,26.69,7.43,14.56,7.73,23.33,19.97,27.19,35.83,2.35,9.66,2.77,19.44,1.37,29.29-.91,6.41-1.79,12.83-2.73,19.61h-2.69c-31.76,0-63.52.02-95.28-.05-2.27,0-3.38.34-3.62,2.92-.55,5.83-.37,11.46,2.91,16.56,3.01,4.69,7.54,7.25,12.87,8.16,8.81,1.49,17.27.3,24.69-4.95,2.65-1.88,4.63-4.69,6.96-7.03.48-.48,1.17-1.08,1.77-1.08,16.48-.06,32.96-.05,49.79-.05Zm-92.56-45.17c15.87,0,31.49-.01,47.1.02,1.25,0,1.59-.59,1.68-1.65.92-11.51-5.85-19.75-17.38-20.89-10.15-1.01-18.79,2.5-25.52,10.27-2.99,3.45-5.02,7.46-5.89,12.25Z"/>
      <path class="cls-1" d="m420.03,125.85c-.69,24.66-6.31,45.18-19.67,63.14-13.09,17.6-30.48,28.69-51.86,33.57-9.45,2.16-19.03,2.93-28.67,2.48-14.52-.68-28.38-3.72-40.44-12.51-11.72-8.53-19.01-20.05-21.49-34.12-5.16-29.21,1.59-55.9,19.43-79.44,12.97-17.1,30.64-27.24,51.64-31.7,9.65-2.05,19.4-2.51,29.16-2,13.42.7,26.2,3.82,37.46,11.67,12.07,8.41,19.39,19.98,22.44,34.21,1.21,5.63,1.58,11.44,2.01,14.71Zm-57.19,4.96c-.39-2.77-.65-6.6-1.5-10.29-3.77-16.29-18.03-18.07-28.6-11.32-4.12,2.63-7.25,6.35-9.66,10.59-7.01,12.36-9.57,25.8-9.5,39.87.03,5.44.89,10.68,3.49,15.52,3.99,7.42,10.63,9.51,18.08,8.29,7.21-1.18,12.2-5.7,16.14-11.45,8.28-12.09,10.5-25.94,11.55-41.2Z"/>
      <path class="cls-1" d="m441.09,67.15h55.87c-1.98,11.64-3.96,23.13-5.88,34.63-1.63,9.78-3.15,19.58-4.78,29.37-1.49,8.95-3.08,17.88-4.57,26.83-1.49,8.95-2.89,17.92-4.38,26.87-1.49,8.95-3.05,17.88-4.57,26.83-.49,2.91-.99,5.83-1.36,8.76-.15,1.2-.5,1.76-1.81,1.75-17.83-.03-35.66-.03-53.49-.04-.2,0-.4-.09-.83-.2,8.6-51.6,17.2-103.19,25.8-154.8Z"/>
      <path class="cls-1" d="m472.31,51.12c-11.48,0-20.6-5.87-23.6-14.94-2.93-8.86-.3-16.74,5.31-23.67,5.08-6.28,11.68-10.36,19.72-11.91,11.33-2.19,22.82,1.55,27.64,12.13,4.13,9.06,1.9,17.57-3.84,25.2-5.07,6.74-11.93,10.91-20.22,12.59-1.93.39-3.93.48-5,.6Z"/>
      <path class="cls-1" d="m745.13,2.51c-9.13,10.92-17.97,21.52-26.84,32.1-3.41,4.07-6.85,8.12-10.34,12.12-.44.5-1.27.94-1.92.94-11.58.05-23.15.04-34.73.03-.19,0-.38-.08-.82-.18,2.53-4.26,5-8.42,7.47-12.57,6.07-10.17,12.16-20.33,18.18-30.53.86-1.46,1.86-1.95,3.56-1.94,14.35.07,28.69.04,43.04.04h2.41Z"/>
    </g>
  </g>
</svg>